<svg xmlns="http://www.w3.org/2000/svg" viewBox="0 0 435.53 87.87"><defs><style>.cls-1,.cls-2{fill:#fff;}.cls-2{stroke:#fff;stroke-miterlimit:10;}</style></defs><title>dddff</title><g id="Layer_2" data-name="Layer 2"><g id="Layer_2-2" data-name="Layer 2"><rect class="cls-1" x="421.71" y="71.41" width="13.32" height="5.45"/><path class="cls-1" d="M434.52,71.91v4.45H422.21V71.91h12.31m1-1H421.21v6.45h14.31V70.91Z"/><rect class="cls-1" x="429.35" y="8.11" width="5.68" height="68.75"/><path class="cls-1" d="M434.53,8.61V76.36h-4.68V8.61h4.68m1-1h-6.68V77.36h6.68V7.61Z"/><rect class="cls-1" x="374.59" y="8.11" width="60.44" height="5.22"/><path class="cls-1" d="M434.53,8.61v4.22H375.09V8.61h59.44m1-1H374.09v6.22h61.44V7.61Z"/><polygon class="cls-1" points="355.77 10.72 375.59 0.81 375.59 20.62 355.77 10.72"/><path class="cls-1" d="M375.09,1.62v18.2l-18.2-9.1,18.2-9.1m1-1.62-1.45.72-18.19,9.1-1.79.9,1.79.89,18.19,9.1,1.45.72V0Z"/><rect class="cls-1" x="0.5" y="11.01" width="13.32" height="5.45"/><path class="cls-1" d="M13.32,11.51V16H1V11.51H13.32m1-1H0V17H14.32V10.51Z"/><rect class="cls-1" x="0.5" y="11.01" width="5.68" height="68.75"/><path class="cls-1" d="M5.68,11.51V79.26H1V11.51H5.68m1-1H0V80.26H6.68V10.51Z"/><rect class="cls-1" x="0.5" y="74.54" width="60.44" height="5.22"/><path class="cls-1" d="M60.44,75v4.22H1V75H60.44m1-1H0v6.22H61.44V74Z"/><polygon class="cls-1" points="59.94 67.24 79.75 77.15 59.94 87.06 59.94 67.24"/><path class="cls-1" d="M60.44,68.05l18.19,9.1-18.19,9.1V68.05m-1-1.62V87.87l1.44-.73,18.2-9.09,1.79-.9-1.79-.89-18.2-9.1-1.44-.73Z"/><path class="cls-2" d="M29.52,47.12V60.71H24.2V47.12L15.78,26.63h5.67l5.39,14.72,5.33-14.72h5.67Z"/><path class="cls-2" d="M41.35,60a6.92,6.92,0,0,1-3-3,9.94,9.94,0,0,1-1-4.7V44.59a9.75,9.75,0,0,1,1-4.66,7,7,0,0,1,3-2.94A10.12,10.12,0,0,1,46,36a10.19,10.19,0,0,1,4.7,1,6.93,6.93,0,0,1,3,2.94,9.87,9.87,0,0,1,1,4.66v7.85a9.85,9.85,0,0,1-1,4.65,6.9,6.9,0,0,1-3,2.95,10.07,10.07,0,0,1-4.7,1A10,10,0,0,1,41.35,60Zm7.17-5a4,4,0,0,0,.87-2.78v-7.5A3.92,3.92,0,0,0,48.52,42a3.67,3.67,0,0,0-5,0,3.87,3.87,0,0,0-.88,2.72v7.5A4,4,0,0,0,43.56,55a3.66,3.66,0,0,0,5,0Z"/><path class="cls-2" d="M64.86,52.74a3.45,3.45,0,0,0,.86,2.5,3.92,3.92,0,0,0,4.91,0,3.37,3.37,0,0,0,.84-2.48l.33,3.94a6.71,6.71,0,0,1-2,3.17,5.17,5.17,0,0,1-3.44,1.16,6.2,6.2,0,0,1-5-2.11q-1.76-2.1-1.75-6.11V36.38h5.34Zm6.61-16.36h5.32V60.71H71.47Z"/><path class="cls-2" d="M77.35,26.63H98v5.14H77.35ZM85,29.45h5.32V60.71H85Z"/><path class="cls-2" d="M104.05,52.74a3.44,3.44,0,0,0,.85,2.5,3.29,3.29,0,0,0,2.48.88,3.25,3.25,0,0,0,2.43-.85,3.33,3.33,0,0,0,.85-2.48l.33,3.94a6.73,6.73,0,0,1-2.06,3.17,5.13,5.13,0,0,1-3.43,1.16,6.17,6.17,0,0,1-5-2.11,9.31,9.31,0,0,1-1.76-6.11V36.38h5.35Zm6.61-16.36H116V60.71h-5.32Z"/><path class="cls-2" d="M121.81,26.63h5.37V60.71h-5.37ZM129,60a6.39,6.39,0,0,1-2.12-3.07l.33-4.45a4.77,4.77,0,0,0,.39,2,2.81,2.81,0,0,0,1.12,1.26,3.42,3.42,0,0,0,1.77.44A3.09,3.09,0,0,0,133,55.1a4.67,4.67,0,0,0,.89-3.06V45a4.7,4.7,0,0,0-.89-3,3.07,3.07,0,0,0-2.49-1.08,3.41,3.41,0,0,0-1.77.43,2.74,2.74,0,0,0-1.12,1.25,4.66,4.66,0,0,0-.39,2l-.49-4.12a8,8,0,0,1,2.44-3.28A5.36,5.36,0,0,1,132.48,36a6,6,0,0,1,5.89,4,12.66,12.66,0,0,1,.79,4.75v7.59a12.43,12.43,0,0,1-.81,4.72,6.05,6.05,0,0,1-6,4A5.37,5.37,0,0,1,129,60Z"/><path class="cls-2" d="M150.22,61.06,148.17,60A7.34,7.34,0,0,1,145,56.8a10.85,10.85,0,0,1-1.09-5.09V45.78A12.13,12.13,0,0,1,145,40.5a7.51,7.51,0,0,1,3-3.34A9.49,9.49,0,0,1,152.87,36a8.57,8.57,0,0,1,4.67,1.22,7.71,7.71,0,0,1,3,3.58,14.22,14.22,0,0,1,1,5.65v4.17H147.78V46.58h8.67l0-1.52a4.76,4.76,0,0,0-1-3.12,3.24,3.24,0,0,0-2.61-1.15A3.46,3.46,0,0,0,150,42a5.44,5.44,0,0,0-1,3.48v6.33a4.45,4.45,0,0,0,1.08,3.21,4,4,0,0,0,3,1.13,3.58,3.58,0,0,0,2.19-.65,3.69,3.69,0,0,0,1.3-1.88l4.65,1.64a7.06,7.06,0,0,1-2.73,4.32,9.11,9.11,0,0,1-5.34,1.44Z"/><path class="cls-2" d="M178.18,26.63h5.37V60.71h-5.37Zm2.41,0h16v5.14h-16Zm0,14.93h14.14v5.07H180.59Z"/><path class="cls-2" d="M201.34,59.26q-1.78-1.8-1.78-5.42a7.46,7.46,0,0,1,2.05-5.7q2-1.94,6.08-1.94h4.48l.32,4.32h-4.71a3.18,3.18,0,0,0-2.4.83,3.44,3.44,0,0,0-.81,2.49,2.55,2.55,0,0,0,.83,2.09,3.92,3.92,0,0,0,2.5.68,5.47,5.47,0,0,0,3.07-.7,2.36,2.36,0,0,0,1-2.09l.47,2.79a5.17,5.17,0,0,1-1,2.47,4.7,4.7,0,0,1-2,1.49,7.6,7.6,0,0,1-2.85.49A7.12,7.12,0,0,1,201.34,59.26ZM212,44.19a3.38,3.38,0,0,0-.92-2.52,3.64,3.64,0,0,0-2.64-.9,4.19,4.19,0,0,0-2.18.56,4,4,0,0,0-1.52,1.55l-4.34-1.55a7,7,0,0,1,2.85-3.94,9.12,9.12,0,0,1,5.21-1.4,10.24,10.24,0,0,1,4.62,1A6.74,6.74,0,0,1,216,39.72a8.8,8.8,0,0,1,1,4.37V60.71h-5Z"/><path class="cls-2" d="M227.68,61.06l-1.89-.65a7.45,7.45,0,0,1-3.1-2A7.92,7.92,0,0,1,221,55.2l4.5-2.2a5.46,5.46,0,0,0,2,2.4,5,5,0,0,0,2.88.84,4.65,4.65,0,0,0,2.8-.72,2.33,2.33,0,0,0,1-2,2,2,0,0,0-.57-1.48,3.39,3.39,0,0,0-1.4-.8,23,23,0,0,0-2.35-.58l-.45-.08a2.39,2.39,0,0,1-.51-.13l-.13,0-.15-.05A18.1,18.1,0,0,1,225,49.32a5.38,5.38,0,0,1-2.33-2,6.84,6.84,0,0,1-.93-3.81,7.74,7.74,0,0,1,1-4,6.33,6.33,0,0,1,2.86-2.54,10.53,10.53,0,0,1,4.52-.88,11.7,11.7,0,0,1,4,.62A7.16,7.16,0,0,1,237,38.46a7.42,7.42,0,0,1,1.71,3l-4.54,2.16a4.7,4.7,0,0,0-1.61-2,4.11,4.11,0,0,0-2.4-.7,4,4,0,0,0-2.47.65,2.26,2.26,0,0,0-.86,1.9,1.79,1.79,0,0,0,.56,1.38,3.51,3.51,0,0,0,1.43.77c.58.16,1.39.34,2.42.55l.14,0h.14l.11,0h.12a22.74,22.74,0,0,1,3.78,1,5.53,5.53,0,0,1,2.54,2.1,7.27,7.27,0,0,1,1,4.16,7.69,7.69,0,0,1-1,4.1,6.68,6.68,0,0,1-3.07,2.6,11.83,11.83,0,0,1-4.83.89Z"/><path class="cls-2" d="M242.09,36.38H253.2v4.83H242.09Zm3.85,22.83a7,7,0,0,1-1.45-4.83V29.31h5.36V53.77a2.23,2.23,0,0,0,.39,1.41,1.33,1.33,0,0,0,1.11.49h1.85v5.16h-2.71A5.81,5.81,0,0,1,245.94,59.21Z"/><path class="cls-2" d="M269.49,26.63h5.37V60.71h-5.37Zm2.42,0h16v5.14h-16Zm0,14.93H286v5.07H271.91Z"/><path class="cls-2" d="M295.06,60a6.92,6.92,0,0,1-3-3,9.94,9.94,0,0,1-1-4.7V44.59a9.75,9.75,0,0,1,1-4.66,7,7,0,0,1,3-2.94,11.52,11.52,0,0,1,9.39,0,6.88,6.88,0,0,1,3,2.94,9.87,9.87,0,0,1,1,4.66v7.85a9.85,9.85,0,0,1-1,4.65,6.85,6.85,0,0,1-3,2.95,11.32,11.32,0,0,1-9.39,0Zm7.18-5a4.09,4.09,0,0,0,.86-2.78v-7.5a4,4,0,0,0-.86-2.72,3.68,3.68,0,0,0-5,0,3.87,3.87,0,0,0-.88,2.72v7.5a4,4,0,0,0,.87,2.78,3.12,3.12,0,0,0,2.48,1A3.16,3.16,0,0,0,302.24,55Z"/><path class="cls-2" d="M313.81,36.38h5.49V60.71h-5.49Zm11.53,5.1a4.94,4.94,0,0,0-1.28-.15,4.7,4.7,0,0,0-3.5,1.26,4.91,4.91,0,0,0-1.26,3.52l-.49-5.48a8.75,8.75,0,0,1,2.81-3.43A6.49,6.49,0,0,1,325.44,36a4.17,4.17,0,0,1,1.43.24A3,3,0,0,1,328,37l-1.68,5A2.82,2.82,0,0,0,325.34,41.48Z"/><path class="cls-2" d="M329.8,36.38h5.29L338.47,53l4.41-16.62h3.7L351,53l3.39-16.62h5.3l-6.49,24.33h-4.13l-4.33-16.4-4.29,16.4h-4.17Z"/><path class="cls-2" d="M364.77,59.26Q363,57.46,363,53.84a7.46,7.46,0,0,1,2.05-5.7q2-1.94,6.08-1.94h4.47l.33,4.32h-4.71a3.18,3.18,0,0,0-2.4.83,3.44,3.44,0,0,0-.81,2.49,2.55,2.55,0,0,0,.83,2.09,3.92,3.92,0,0,0,2.5.68,5.47,5.47,0,0,0,3.07-.7,2.36,2.36,0,0,0,1-2.09l.47,2.79a5.17,5.17,0,0,1-1,2.47,4.7,4.7,0,0,1-2,1.49,7.6,7.6,0,0,1-2.85.49A7.12,7.12,0,0,1,364.77,59.26Zm10.66-15.07a3.38,3.38,0,0,0-.92-2.52,3.64,3.64,0,0,0-2.64-.9,4.19,4.19,0,0,0-2.18.56,4,4,0,0,0-1.52,1.55l-4.34-1.55a7,7,0,0,1,2.85-3.94,9.12,9.12,0,0,1,5.21-1.4,10.24,10.24,0,0,1,4.62,1,6.74,6.74,0,0,1,2.94,2.77,8.8,8.8,0,0,1,1,4.37V60.71h-5Z"/><path class="cls-2" d="M386.31,36.38h5.48V60.71h-5.48Zm11.53,5.1a5.08,5.08,0,0,0-1.29-.15,4.67,4.67,0,0,0-3.49,1.26,4.92,4.92,0,0,0-1.27,3.52l-.49-5.48a8.84,8.84,0,0,1,2.81-3.43A6.52,6.52,0,0,1,397.93,36a4.13,4.13,0,0,1,1.43.24,3.17,3.17,0,0,1,1.13.72l-1.69,5A2.85,2.85,0,0,0,397.84,41.48Z"/><path class="cls-2" d="M406.06,60.11a6.28,6.28,0,0,1-2.28-2.93,12.28,12.28,0,0,1-.79-4.65v-7.9a12.55,12.55,0,0,1,.79-4.68A6.39,6.39,0,0,1,406,37a6.1,6.1,0,0,1,3.56-1A5.49,5.49,0,0,1,413,37.11a8.05,8.05,0,0,1,2.47,3.23L415,44.56a4.62,4.62,0,0,0-.39-2,2.77,2.77,0,0,0-1.11-1.25,3.4,3.4,0,0,0-1.78-.44A3.09,3.09,0,0,0,409.2,42a4.56,4.56,0,0,0-.89,3v7.33a4.3,4.3,0,0,0,.89,2.9,3.15,3.15,0,0,0,2.49,1,3.5,3.5,0,0,0,1.78-.42,2.72,2.72,0,0,0,1.11-1.25,4.51,4.51,0,0,0,.39-2l.33,4.33A6.57,6.57,0,0,1,413.15,60a5.47,5.47,0,0,1-3.48,1.13A6.28,6.28,0,0,1,406.06,60.11ZM415,26.63h5.37V60.71H415Z"/></g></g></svg>