<svg xmlns="http://www.w3.org/2000/svg" viewBox="0 0 944.85 261.65"><defs><style>.cls-1{fill:#609;}.cls-2{fill:#7600ad;}.cls-3{opacity:0.9;}.cls-3,.cls-4,.cls-5,.cls-6,.cls-7,.cls-8{isolation:isolate;}.cls-4,.cls-5{font-size:39.3px;}.cls-4,.cls-5,.cls-7,.cls-8{font-family:Epilogue-Bold, Epilogue;font-weight:700;}.cls-4{letter-spacing:-0.02em;}.cls-7,.cls-8{font-size:55.68px;}.cls-7{letter-spacing:-0.01em;}</style></defs><title>extensions_by_repuddle_1</title><g id="Layer_2" data-name="Layer 2"><g id="Layer_2-2" data-name="Layer 2"><path class="cls-1" d="M291.21,108.15h32.45l7.81-17.51H238.22v17.51h30.45v22.26h4.17a37.86,37.86,0,0,1,18.37,4.31Z"/><path class="cls-1" d="M234.22,260.86a18.3,18.3,0,0,0,18.3-18.3h0v-39h22.2A36.6,36.6,0,0,0,311.4,167a35.53,35.53,0,0,0-.48-6,38,38,0,0,0-19.71-26.17v48.79a16.47,16.47,0,0,1-3.59,10.44,12.33,12.33,0,0,1-7.32,4.37H268.59v-68l-16.07-.12V66.51a18.32,18.32,0,0,0-18.3-18.32h-64V38.62A38,38,0,0,0,139.85.54a35.81,35.81,0,0,0-6.2-.54,36.6,36.6,0,0,0-36.6,36.6V48.19H18.3A18.29,18.29,0,0,0,0,66.48v63.83H13.35A38,38,0,0,1,51.5,160.78,36.6,36.6,0,0,1,21.6,203a37.06,37.06,0,0,1-6.23.52H0v39H0a18.27,18.27,0,0,0,18.27,18.27H96.93v-7.69A37.94,37.94,0,0,1,127.31,215a35.69,35.69,0,0,1,6.19-.54,36.6,36.6,0,0,1,36.6,36.6v9.76M128.36,108H94.2v27.38h34.67V152.9H94.3v27.64h34.3L137,198.06H71.53V90.54H137Zm85.39,90.1-19.52-38-15,28.89-30.16,9.07,30.67-53.31L150,90.54h25.47l18.76,39,13.2-27.7,30.86-11.34L208.75,144.8l30.57,53.33Z"/><path class="cls-1" d="M349.23,108l10.22-10.78v44.57l-5.12-6.41H394V152.9H354.33l5.12-6.42v44.94l-10.22-10.88h45l8,17.5H336.69V90.54h65.43L394,108Z"/><path class="cls-2" d="M442,198.13h-22.1V90.54h22"/><path class="cls-2" d="M495.27,198.21h-22V90.61h22"/><path class="cls-1" d="M495.27,198.21h-22L420,90.61h22"/><path class="cls-2" d="M784.65,198.13h-22.1V90.54h22"/><path class="cls-2" d="M838,198.21H815.88L816,105l21.95-7.86"/><path class="cls-1" d="M838,198.21H815.88L762.55,90.61h22"/><path class="cls-1" d="M610.45,198.13V98.47l22.3-7.93V198.13Z"/><path class="cls-1" d="M696.09,199.87a48.32,48.32,0,0,1-18.84-3.64,44.51,44.51,0,0,1-15.39-10.73A50.18,50.18,0,0,1,651.42,168a69,69,0,0,1-3.81-23.82,69.91,69.91,0,0,1,3.81-23.81,49.43,49.43,0,0,1,10.39-17.32,43.92,43.92,0,0,1,15.4-10.56,51.45,51.45,0,0,1,37.74,0,43.86,43.86,0,0,1,15.44,10.56,48.86,48.86,0,0,1,10.35,17.32,70.08,70.08,0,0,1,3.73,23.81A70.13,70.13,0,0,1,740.71,168a49.48,49.48,0,0,1-10.46,17.39,44.26,44.26,0,0,1-15.47,10.74A48.17,48.17,0,0,1,696.09,199.87Zm0-18.16a22.8,22.8,0,0,0,12.56-3.61,25.29,25.29,0,0,0,9.3-12.2,56.55,56.55,0,0,0,3.51-21.78,55.41,55.41,0,0,0-3.53-21.74,25.05,25.05,0,0,0-9.3-11.76,23.52,23.52,0,0,0-25.13,0,24.32,24.32,0,0,0-9.29,11.76,56,56,0,0,0-3.52,21.74,56.33,56.33,0,0,0,3.52,21.81,25.32,25.32,0,0,0,9.29,12.17A22.92,22.92,0,0,0,696.09,181.71Z"/><path class="cls-1" d="M903.15,199.87a52.6,52.6,0,0,1-20.52-3.71A30.55,30.55,0,0,1,868.78,185a32,32,0,0,1-4.88-18.42V151.27l22.69,11v3.85a15.1,15.1,0,0,0,4.22,11.54,17.68,17.68,0,0,0,12.54,4,25.7,25.7,0,0,0,12.9-2.66,9.39,9.39,0,0,0,4.54-8.79,10.24,10.24,0,0,0-3.44-7.54,31.87,31.87,0,0,0-9.2-5.88,112.85,112.85,0,0,0-13.24-4.88,68.94,68.94,0,0,1-15-6.71,33.62,33.62,0,0,1-11.12-10.56,28.32,28.32,0,0,1-4.2-15.83,25.92,25.92,0,0,1,5-16.15,31.57,31.57,0,0,1,13.59-10.2,51.26,51.26,0,0,1,19.51-3.54A53.45,53.45,0,0,1,923,92.47a30.33,30.33,0,0,1,13.91,10.59,29.46,29.46,0,0,1,5,17.54v2.14c0,.66-2.71,15.52-2.71,16.33L919.26,125V121.6a14.43,14.43,0,0,0-3.91-10.86c-2.61-2.44-6.68-3.78-12.2-3.78a22.36,22.36,0,0,0-12.42,2.83A10.86,10.86,0,0,0,888.42,125a11.46,11.46,0,0,0,1.07,1.24,29.07,29.07,0,0,0,8.71,5.54c3.68,1.61,7.9,3.22,12.61,4.88A103.64,103.64,0,0,1,927.62,144a30.74,30.74,0,0,1,11.13,10.12,28,28,0,0,1,4,15.52A26.79,26.79,0,0,1,937.82,186a30.31,30.31,0,0,1-13.88,10.32A55.85,55.85,0,0,1,903.15,199.87Z"/><path class="cls-1" d="M556.27,199.87a52.56,52.56,0,0,1-20.52-3.71A30.63,30.63,0,0,1,521.89,185a32.05,32.05,0,0,1-5-18.42V151.27l22.69,11v3.85a15.14,15.14,0,0,0,4.22,11.54,17.66,17.66,0,0,0,12.47,4.05,25.48,25.48,0,0,0,12.9-2.66,9.37,9.37,0,0,0,4.54-8.78,10.28,10.28,0,0,0-3.39-7.59,32,32,0,0,0-9.17-5.88,113.37,113.37,0,0,0-13.23-4.88,69.09,69.09,0,0,1-15-6.71,33.72,33.72,0,0,1-11.12-10.56,28.32,28.32,0,0,1-4.2-15.83,26.11,26.11,0,0,1,5-16.15,31.75,31.75,0,0,1,13.71-10.23,51.45,51.45,0,0,1,19.52-3.53,53.67,53.67,0,0,1,20.25,3.53A30.3,30.3,0,0,1,589.86,103a29.39,29.39,0,0,1,5,17.54v2.15c0,.66-2.7,15.52-2.7,16.32l-19.91-14.1V121.6a14.43,14.43,0,0,0-3.91-10.86c-2.61-2.44-6.66-3.78-12.2-3.78a22.26,22.26,0,0,0-12.39,2.83A10.86,10.86,0,0,0,541.44,125a10.45,10.45,0,0,0,1.07,1.24,29.07,29.07,0,0,0,8.71,5.54c3.68,1.61,7.9,3.22,12.61,4.88A102.12,102.12,0,0,1,580.66,144a30.74,30.74,0,0,1,11.13,10.12,28,28,0,0,1,4,15.52A26.79,26.79,0,0,1,590.86,186,30.31,30.31,0,0,1,577,196.3,55.91,55.91,0,0,1,556.27,199.87Z"/><polygon class="cls-2" points="879.88 47.94 815.88 47.94 815.88 90.54 837.77 82.81 837.77 60.95 879.88 68.68 879.88 69.51 879.88 76.88 917.45 58.09 879.88 39.3 879.88 47.09 879.88 47.94"/><g class="cls-3"><text class="cls-4" transform="translate(624.44 239.92)">b</text><text class="cls-5" transform="translate(649.47 239.92)">y</text></g><g class="cls-6"><text class="cls-7" transform="translate(685.53 248.65)">r</text><text class="cls-8" transform="translate(710.62 248.65)">epuddle</text></g></g></g></svg>